<svg xmlns="http://www.w3.org/2000/svg" viewBox="0 0 760 460">
  <defs>
    <filter id="shadow" x="-20%" y="-20%" width="140%" height="140%">
      <feDropShadow dx="0" dy="18" stdDeviation="24" flood-color="#0f172a" flood-opacity="0.18"/>
    </filter>
    <filter id="softShadow" x="-20%" y="-20%" width="140%" height="140%">
      <feDropShadow dx="0" dy="8" stdDeviation="12" flood-color="#0f172a" flood-opacity="0.12"/>
    </filter>
  </defs>
  <rect width="760" height="460" rx="24" fill="#f4f7f2"/>

  <g transform="translate(62 42)">
    <rect width="636" height="376" rx="18" fill="#ffffff" filter="url(#shadow)"/>
    <rect width="636" height="58" rx="18" fill="#f8fafc"/>
    <rect y="42" width="636" height="16" fill="#f8fafc"/>

    <g transform="translate(24 18)" fill="#64748b">
      <circle cx="0" cy="0" r="8" fill="#ef4444"/>
      <circle cx="24" cy="0" r="8" fill="#f59e0b"/>
      <circle cx="48" cy="0" r="8" fill="#22c55e"/>
      <rect x="92" y="-13" width="380" height="26" rx="13" fill="#ffffff" stroke="#e2e8f0"/>
      <text x="116" y="5" font-size="12" font-family="-apple-system, BlinkMacSystemFont, Segoe UI, sans-serif">weread.qq.com/web/reader/...</text>
      <rect x="506" y="-13" width="26" height="26" rx="6" fill="#eaf4ff"/>
      <text x="519" y="5" text-anchor="middle" fill="#1769aa" font-size="13" font-weight="800" font-family="-apple-system, BlinkMacSystemFont, Segoe UI, sans-serif">AI</text>
    </g>

    <g transform="translate(314 84)" filter="url(#softShadow)">
      <rect width="300" height="286" rx="14" fill="#ffffff" stroke="#dbe3ec"/>
      <text x="16" y="34" fill="#1f2933" font-size="20" font-weight="800" font-family="-apple-system, BlinkMacSystemFont, Segoe UI, sans-serif">WeRead AI</text>
      <text x="16" y="60" fill="#667085" font-size="13" font-family="-apple-system, BlinkMacSystemFont, Segoe UI, sans-serif">被放大的欲望 · 第二章 中国制造纺织品</text>

      <rect x="16" y="78" width="268" height="40" rx="8" fill="#e7f6ed"/>
      <text x="30" y="103" fill="#1f7a4d" font-size="14" font-weight="700" font-family="-apple-system, BlinkMacSystemFont, Segoe UI, sans-serif">已配置：127.0.0.1:19763</text>

      <rect x="16" y="132" width="268" height="36" rx="8" fill="#007aff"/>
      <text x="150" y="155" text-anchor="middle" fill="#ffffff" font-size="15" font-weight="800" font-family="-apple-system, BlinkMacSystemFont, Segoe UI, sans-serif">本章判断</text>

      <rect x="16" y="178" width="268" height="36" rx="8" fill="#edf5ff" stroke="#cfe2ff"/>
      <text x="150" y="201" text-anchor="middle" fill="#1769aa" font-size="15" font-weight="700" font-family="-apple-system, BlinkMacSystemFont, Segoe UI, sans-serif">打开摘要窗口</text>

      <line x1="16" x2="284" y1="228" y2="228" stroke="#e1e7ee"/>
      <rect x="16" y="242" width="126" height="30" rx="7" fill="#f2f4f7"/>
      <text x="79" y="262" text-anchor="middle" fill="#475467" font-size="13" font-family="-apple-system, BlinkMacSystemFont, Segoe UI, sans-serif">打开设置</text>
      <rect x="158" y="242" width="126" height="30" rx="7" fill="#f2f4f7"/>
      <text x="221" y="262" text-anchor="middle" fill="#475467" font-size="13" font-family="-apple-system, BlinkMacSystemFont, Segoe UI, sans-serif">清除缓存</text>
    </g>

    <g transform="translate(46 150)" font-family="-apple-system, BlinkMacSystemFont, Segoe UI, sans-serif">
      <text x="0" y="0" fill="#1f2933" font-size="24" font-weight="800">工具栏 popup</text>
      <text x="0" y="38" fill="#667085" font-size="17">只做控制台：</text>
      <text x="0" y="72" fill="#667085" font-size="17">触发本章判断</text>
      <text x="0" y="104" fill="#667085" font-size="17">打开摘要窗口</text>
      <text x="0" y="136" fill="#667085" font-size="17">进入设置或清缓存</text>
    </g>
  </g>
</svg>
